<svg width="112" height="21" viewBox="0 0 112 21" fill="none" xmlns="http://www.w3.org/2000/svg">
<g clip-path="url(#clip0_348_62)">
<path d="M10.2855 21C15.9661 21 20.571 16.299 20.571 10.5C20.571 4.70101 15.9661 0 10.2855 0C4.60498 0 0 4.70101 0 10.5C0 16.299 4.60498 21 10.2855 21Z" fill="#7916F3"/>
<path d="M6.60547 13.8577L9.28142 10.3933L6.71954 7.08411H8.80136L10.3271 9.05892L11.8528 7.08411H13.9346L11.3632 10.3933L14.0487 13.8577H11.9669L10.3271 11.7421L8.68729 13.8577H6.60547Z" fill="white"/>
<path d="M10.3273 5.23542C11.2329 5.23542 11.9671 4.48595 11.9671 3.56143C11.9671 2.63692 11.2329 1.88745 10.3273 1.88745C9.42166 1.88745 8.6875 2.63692 8.6875 3.56143C8.6875 4.48595 9.42166 5.23542 10.3273 5.23542Z" fill="#FF2670"/>
<path d="M10.3273 19.0495C11.2329 19.0495 11.9671 18.3 11.9671 17.3755C11.9671 16.451 11.2329 15.7015 10.3273 15.7015C9.42166 15.7015 8.6875 16.451 8.6875 17.3755C8.6875 18.3 9.42166 19.0495 10.3273 19.0495Z" fill="#FF2670"/>
<path d="M4.41127 15.8034C5.3169 15.8034 6.05106 15.0539 6.05106 14.1294C6.05106 13.2049 5.3169 12.4554 4.41127 12.4554C3.50564 12.4554 2.77148 13.2049 2.77148 14.1294C2.77148 15.0539 3.50564 15.8034 4.41127 15.8034Z" fill="#FF2670"/>
<path d="M16.2453 15.8034C17.1509 15.8034 17.885 15.0539 17.885 14.1294C17.885 13.2049 17.1509 12.4554 16.2453 12.4554C15.3396 12.4554 14.6055 13.2049 14.6055 14.1294C14.6055 15.0539 15.3396 15.8034 16.2453 15.8034Z" fill="#FF2670"/>
<path d="M4.41127 8.48639C5.3169 8.48639 6.05106 7.73693 6.05106 6.81241C6.05106 5.8879 5.3169 5.13843 4.41127 5.13843C3.50564 5.13843 2.77148 5.8879 2.77148 6.81241C2.77148 7.73693 3.50564 8.48639 4.41127 8.48639Z" fill="#FF2670"/>
<path d="M16.2453 8.48639C17.1509 8.48639 17.885 7.73693 17.885 6.81241C17.885 5.8879 17.1509 5.13843 16.2453 5.13843C15.3396 5.13843 14.6055 5.8879 14.6055 6.81241C14.6055 7.73693 15.3396 8.48639 16.2453 8.48639Z" fill="#FF2670"/>
<path d="M23.7215 17.7976L29.5107 9.36947V11.0726L24.0923 2.97437H26.6732L28.5934 5.9002C28.9071 6.366 29.159 6.76388 29.3539 7.10352C29.5487 7.44317 29.7294 7.76827 29.891 8.08851C30.0526 8.40875 30.2379 8.77266 30.4471 9.18509H29.9718C30.1714 8.78236 30.3568 8.41845 30.5231 8.09821C30.6895 7.77797 30.8748 7.44803 31.0745 7.10838C31.2741 6.76873 31.5308 6.36115 31.8349 5.9002L33.7932 2.97437H36.317L30.9366 10.9658V9.31609L36.6402 17.8025H34.0451L31.6781 14.2604C31.4072 13.848 31.179 13.4938 30.9937 13.2026C30.8083 12.9115 30.6419 12.6155 30.4898 12.3341C30.3377 12.0478 30.1666 11.7179 29.9765 11.3394H30.3948C30.2047 11.7033 30.0336 12.0284 29.8767 12.3147C29.7199 12.601 29.5535 12.8921 29.3681 13.1881C29.1828 13.4841 28.9499 13.8431 28.6647 14.2604L26.2692 17.8025H23.7168L23.7215 17.7976Z" fill="#280936"/>
<path d="M42.0215 18.0257C41.2373 18.0257 40.5338 17.9092 39.9207 17.6763C39.3076 17.4434 38.8037 17.0989 38.4092 16.6477C38.0147 16.1964 37.7533 15.6384 37.625 14.9786L39.645 14.5516C39.7924 15.129 40.0728 15.556 40.4816 15.8374C40.8903 16.1188 41.4131 16.2547 42.0405 16.2547C42.7297 16.2547 43.2763 16.1091 43.6898 15.8131C44.1034 15.5171 44.303 15.1629 44.303 14.7554C44.303 14.3963 44.1794 14.1003 43.9275 13.8674C43.6756 13.6345 43.2906 13.4647 42.7725 13.3482L40.9378 12.9213C39.9255 12.6884 39.1697 12.3196 38.6754 11.8053C38.1811 11.2909 37.9339 10.6408 37.9339 9.84501C37.9339 9.18027 38.1146 8.60286 38.4805 8.10309C38.8465 7.60333 39.3408 7.22001 39.973 6.94344C40.6051 6.66687 41.3323 6.53101 42.1546 6.53101C42.9769 6.53101 43.6138 6.64746 44.1747 6.88036C44.7355 7.11326 45.187 7.43835 45.534 7.85564C45.881 8.27292 46.1281 8.75813 46.2802 9.30642L44.36 9.73341C44.2222 9.34039 43.9845 9.00074 43.6471 8.70476C43.3096 8.40878 42.82 8.26322 42.1736 8.26322C41.5843 8.26322 41.0899 8.39907 40.6907 8.67079C40.2914 8.94251 40.0966 9.28701 40.0966 9.7043C40.0966 10.0779 40.2297 10.3739 40.4911 10.6068C40.7525 10.8348 41.185 11.0192 41.7839 11.1599L43.5377 11.5578C44.5454 11.7907 45.2916 12.1546 45.7812 12.6544C46.2707 13.1542 46.5131 13.7898 46.5131 14.5661C46.5131 15.2406 46.323 15.8422 45.9428 16.3614C45.5625 16.8806 45.0349 17.2882 44.3648 17.5841C43.6898 17.8801 42.9104 18.0257 42.0215 18.0257Z" fill="#280936"/>
<path d="M52.2793 18.0257C51.4951 18.0257 50.7917 17.9092 50.1785 17.6763C49.5654 17.4434 49.0616 17.0989 48.6671 16.6477C48.2726 16.1964 48.0111 15.6384 47.8828 14.9786L49.9028 14.5516C50.0502 15.129 50.3306 15.556 50.7394 15.8374C51.1481 16.1188 51.671 16.2547 52.2984 16.2547C52.9875 16.2547 53.5341 16.1091 53.9477 15.8131C54.3612 15.5171 54.5608 15.1629 54.5608 14.7554C54.5608 14.3963 54.4372 14.1003 54.1853 13.8674C53.9334 13.6345 53.5484 13.4647 53.0303 13.3482L51.1957 12.9213C50.1833 12.6884 49.4275 12.3196 48.9332 11.8053C48.4389 11.2909 48.1918 10.6408 48.1918 9.84501C48.1918 9.18027 48.3724 8.60286 48.7384 8.10309C49.1043 7.60333 49.5987 7.22001 50.2308 6.94344C50.863 6.66687 51.5902 6.53101 52.4124 6.53101C53.2347 6.53101 53.8716 6.64746 54.4325 6.88036C54.9933 7.11326 55.4449 7.43835 55.7918 7.85564C56.1388 8.27292 56.386 8.75813 56.538 9.30642L54.6178 9.73341C54.48 9.34039 54.2423 9.00074 53.9049 8.70476C53.5674 8.40878 53.0779 8.26322 52.4314 8.26322C51.8421 8.26322 51.3478 8.39907 50.9485 8.67079C50.5493 8.94251 50.3544 9.28701 50.3544 9.7043C50.3544 10.0779 50.4875 10.3739 50.7489 10.6068C51.0103 10.8348 51.4428 11.0192 52.0417 11.1599L53.7956 11.5578C54.8032 11.7907 55.5494 12.1546 56.039 12.6544C56.5285 13.1542 56.7709 13.7898 56.7709 14.5661C56.7709 15.2406 56.5808 15.8422 56.2006 16.3614C55.8203 16.8806 55.2928 17.2882 54.6226 17.5841C53.9477 17.8801 53.1682 18.0257 52.2793 18.0257Z" fill="#280936"/>
<path d="M63.3189 18.0256C62.2448 18.0256 61.3227 17.7878 60.5432 17.3172C59.7637 16.8465 59.1648 16.1818 58.7465 15.3278C58.3283 14.4738 58.1191 13.4695 58.1191 12.3146C58.1191 11.1598 58.3235 10.17 58.737 9.30148C59.1505 8.43295 59.7304 7.75365 60.4861 7.26844C61.2419 6.78322 62.1259 6.53577 63.1383 6.53577C63.761 6.53577 64.3646 6.64251 64.9397 6.85115C65.5148 7.0598 66.0377 7.38489 66.4987 7.83128C66.9597 8.27768 67.3257 8.85023 67.5967 9.55864C67.8676 10.2671 68.0007 11.121 68.0007 12.1303V12.9066H59.3169V11.2763H66.9027L65.8998 11.8149C65.8998 11.1307 65.7953 10.5291 65.5861 10.0099C65.377 9.49071 65.0728 9.08313 64.664 8.79201C64.2553 8.50088 63.7515 8.35531 63.1383 8.35531C62.5252 8.35531 62.0166 8.50573 61.5888 8.80171C61.1611 9.09769 60.8331 9.49556 60.6097 9.98078C60.3863 10.466 60.2723 10.9997 60.2723 11.5771V12.6931C60.2723 13.4549 60.4006 14.1002 60.6573 14.6291C60.9139 15.158 61.2751 15.5559 61.7362 15.8227C62.1972 16.0896 62.7343 16.2255 63.3427 16.2255C63.7467 16.2255 64.1079 16.1672 64.4359 16.0508C64.7639 15.9343 65.0395 15.7597 65.2772 15.5219C65.5148 15.2842 65.6954 14.9979 65.819 14.6534L67.8391 15.1386C67.6632 15.7111 67.3685 16.2109 66.955 16.6524C66.5415 17.094 66.0282 17.4288 65.415 17.6714C64.8019 17.914 64.1032 18.0353 63.3237 18.0353L63.3189 18.0256Z" fill="#280936"/>
<path d="M74.5037 6.67163V8.45236H68.5957V6.67163H74.5037ZM70.188 4.02722H72.3316V14.7941C72.3316 15.2405 72.4219 15.5656 72.6072 15.7742C72.7926 15.9829 73.0968 16.0896 73.5198 16.0896C73.6291 16.0896 73.7765 16.0751 73.9571 16.0508C74.1377 16.0265 74.2946 15.9974 74.4229 15.9732L74.8031 17.7248C74.575 17.8024 74.3326 17.8606 74.0712 17.8994C73.8098 17.9383 73.5531 17.9528 73.3012 17.9528C72.3126 17.9528 71.5473 17.6908 71.0007 17.1716C70.4541 16.6525 70.1832 15.9198 70.1832 14.9785V4.02722H70.188Z" fill="#280936"/>
<path d="M76.3281 17.7976V2.96948H78.5525V9.23843H85.7438V2.96948H87.9778V17.7976H85.7438V11.189H78.5525V17.7976H76.3281Z" fill="#280936"/>
<path d="M94.2434 17.9383C93.5019 17.9383 92.8507 17.7781 92.2946 17.4628C91.7385 17.1474 91.3012 16.6719 90.9923 16.0508C90.6833 15.4249 90.5312 14.6582 90.5312 13.7412V6.67648H92.6749V13.4743C92.6749 14.2749 92.8792 14.9057 93.2927 15.3569C93.7063 15.8082 94.2671 16.0314 94.9753 16.0314C95.4649 16.0314 95.8974 15.9246 96.2776 15.7063C96.6579 15.4928 96.9573 15.1774 97.1807 14.7601C97.4041 14.3428 97.5134 13.8479 97.5134 13.2608V6.67163H99.657V17.7976H97.6085L97.599 15.0707H97.8034C97.4849 16.0799 97.0191 16.8077 96.4107 17.259C95.8023 17.7102 95.0799 17.9334 94.2481 17.9334L94.2434 17.9383Z" fill="#280936"/>
<path d="M107.446 18.0159C106.79 18.0159 106.253 17.8995 105.835 17.6714C105.417 17.4434 105.089 17.1765 104.851 16.8708C104.613 16.5651 104.433 16.2934 104.3 16.0557H104.124V17.7976H102.037V2.96948H104.181V8.4815H104.3C104.428 8.24859 104.608 7.98173 104.841 7.67604C105.07 7.37036 105.393 7.10349 105.806 6.87544C106.22 6.64739 106.766 6.53094 107.451 6.53094C108.321 6.53094 109.1 6.75414 109.785 7.20539C110.469 7.65664 111.011 8.31167 111.41 9.16565C111.809 10.0196 112.004 11.0531 112.004 12.2613C112.004 13.4695 111.809 14.4836 111.42 15.3424C111.03 16.2012 110.493 16.8611 109.808 17.3221C109.124 17.783 108.34 18.0111 107.456 18.0111L107.446 18.0159ZM106.966 16.1576C107.589 16.1576 108.111 15.9829 108.534 15.6384C108.958 15.2939 109.271 14.8281 109.485 14.2361C109.699 13.6442 109.804 12.9843 109.804 12.2467C109.804 11.5092 109.699 10.8639 109.485 10.2816C109.271 9.69938 108.958 9.24328 108.539 8.90363C108.121 8.56398 107.593 8.39416 106.966 8.39416C106.339 8.39416 105.84 8.55428 105.417 8.87937C104.993 9.20446 104.675 9.65086 104.461 10.2234C104.247 10.796 104.138 11.4704 104.138 12.2467C104.138 13.0231 104.247 13.6927 104.466 14.2798C104.685 14.8669 105.003 15.3278 105.426 15.6578C105.849 15.9877 106.362 16.1576 106.966 16.1576Z" fill="#280936"/>
</g>
<defs>
<clipPath id="clip0_348_62">
<rect width="112" height="21" fill="white"/>
</clipPath>
</defs>
</svg>
