<svg width="21" height="21" viewBox="0 0 21 21" fill="none" xmlns="http://www.w3.org/2000/svg">
<path d="M10.2855 21C15.9661 21 20.571 16.299 20.571 10.5C20.571 4.70101 15.9661 0 10.2855 0C4.60498 0 0 4.70101 0 10.5C0 16.299 4.60498 21 10.2855 21Z" fill="#7916F3"/>
<path d="M6.60547 13.8577L9.28142 10.3933L6.71954 7.08411H8.80136L10.3271 9.05892L11.8528 7.08411H13.9346L11.3632 10.3933L14.0487 13.8577H11.9669L10.3271 11.7421L8.68729 13.8577H6.60547Z" fill="white"/>
<path d="M10.3273 5.23542C11.2329 5.23542 11.9671 4.48595 11.9671 3.56143C11.9671 2.63692 11.2329 1.88745 10.3273 1.88745C9.42166 1.88745 8.6875 2.63692 8.6875 3.56143C8.6875 4.48595 9.42166 5.23542 10.3273 5.23542Z" fill="#FF2670"/>
<path d="M10.3273 19.0495C11.2329 19.0495 11.9671 18.3 11.9671 17.3755C11.9671 16.451 11.2329 15.7015 10.3273 15.7015C9.42166 15.7015 8.6875 16.451 8.6875 17.3755C8.6875 18.3 9.42166 19.0495 10.3273 19.0495Z" fill="#FF2670"/>
<path d="M4.41127 15.8034C5.3169 15.8034 6.05106 15.0539 6.05106 14.1294C6.05106 13.2049 5.3169 12.4554 4.41127 12.4554C3.50564 12.4554 2.77148 13.2049 2.77148 14.1294C2.77148 15.0539 3.50564 15.8034 4.41127 15.8034Z" fill="#FF2670"/>
<path d="M16.2453 15.8034C17.1509 15.8034 17.885 15.0539 17.885 14.1294C17.885 13.2049 17.1509 12.4554 16.2453 12.4554C15.3396 12.4554 14.6055 13.2049 14.6055 14.1294C14.6055 15.0539 15.3396 15.8034 16.2453 15.8034Z" fill="#FF2670"/>
<path d="M4.41127 8.48639C5.3169 8.48639 6.05106 7.73693 6.05106 6.81241C6.05106 5.8879 5.3169 5.13843 4.41127 5.13843C3.50564 5.13843 2.77148 5.8879 2.77148 6.81241C2.77148 7.73693 3.50564 8.48639 4.41127 8.48639Z" fill="#FF2670"/>
<path d="M16.2453 8.48639C17.1509 8.48639 17.885 7.73693 17.885 6.81241C17.885 5.8879 17.1509 5.13843 16.2453 5.13843C15.3396 5.13843 14.6055 5.8879 14.6055 6.81241C14.6055 7.73693 15.3396 8.48639 16.2453 8.48639Z" fill="#FF2670"/>
</svg>
